<svg xmlns="http://www.w3.org/2000/svg" viewBox="0 0 32 32">
  <rect width="32" height="32" rx="7" fill="#0B0A09"/>
  <path fill="#B5524A" d="M13.2 4.2h5.6c.5 0 .9.4.9.9v1.4c0 .3-.1.5-.3.7l-.4.4v2.6c0 .6.2 1.2.6 1.7l2.2 2.5c.7.8 1.1 1.8 1.1 2.9V26c0 1.1-.9 2-2 2h-9.8c-1.1 0-2-.9-2-2v-8.7c0-1.1.4-2.1 1.1-2.9l2.2-2.5c.4-.5.6-1.1.6-1.7V7.6l-.4-.4c-.2-.2-.3-.4-.3-.7V5.1c0-.5.4-.9.9-.9z"/>
  <path fill="#3D5C48" d="M13.2 4.2h5.6c.5 0 .9.4.9.9v1.4c0 .3-.1.5-.3.7l-.4.4v2.2h-5.6V7.6l-.4-.4c-.2-.2-.3-.4-.3-.7V5.1c0-.5.4-.9.9-.9z"/>
  <rect x="14.1" y="3.2" width="3.8" height="1.6" rx="0.5" fill="#F1EBE3"/>
</svg>
